<?xml version="1.0" encoding="UTF-8"?><svg id="a" xmlns="http://www.w3.org/2000/svg" xmlns:xlink="http://www.w3.org/1999/xlink" viewBox="0 0 900.63 600"><defs><style>.c,.d{fill:none;}.e,.f{fill:#00dbff;}.g{fill:url(#b);stroke:#fff;stroke-miterlimit:10;}.h{fill:#489bff;opacity:.31;}.h,.i,.j,.f{isolation:isolate;}.i{fill:#f7770f;opacity:.36;}.j{fill:#00b2c4;}.j,.f{opacity:.51;}.d{stroke:#231f20;stroke-width:.3px;}</style><pattern id="b" x="0" y="0" width="72" height="72" patternTransform="translate(1.3 -15280.5) scale(1 -1)" patternUnits="userSpaceOnUse" viewBox="0 0 72 72"><g><rect class="c" width="72" height="72"/><g><rect class="c" x="0" width="72" height="72"/><g><path class="d" d="M68.2-3.5c2.2,.5,7,0,6-1.8s4-7,4.5-5.5-2,4.5,.8,4.8,5.8-3,7.5-3.2,5.5,1.5,3.2,3-2.8,4.5-5.5,4.3-7,.2-6,3"/><path class="d" d="M69.2-1c1.8-.5,5.5-.2,6-1.8s2.7-2.8,2.7-1.5-1.7,2.8-1.7,2.8c0,0-4,3.5-2,4"/><path class="d" d="M71-8.3c1.5-1.5,3.5-2.7,5.5-3.8,2-1,5-2,5.2-.8,.2,1.3-2.8,3.3-1,3.3s3.2-2,6.5-1.8,9.2,4,7.2,4.8-3.8,3.5-5.5,4.5-2.8,1-4,1-4,1.2-2,2"/></g><g><path class="d" d="M-3.8-3.5c2.2,.5,7,0,6-1.8s4-7,4.5-5.5-2,4.5,.8,4.8,5.8-3,7.5-3.2,5.5,1.5,3.2,3S15.4-1.7,12.7-1.9s-7,.2-6,3"/><path class="d" d="M23.7,1c1.2-.5,4.2-3,3.2-4.8s-.5-3.3,1-3.5,6.2,2,5.8,3.3-1.8,3.2,0,4.5"/><path class="d" d="M45.7,3.2C47.5,2.2,47.5,1.2,46.2,0s-6.5-1.2-5.8-2.5,5-4,7.8-4,3,3.5,4.8,4"/><path class="d" d="M54-1.3c.8,.5,.8,1,.5,3"/><path class="d" d="M56.2,5.7c0-1.5-.4-5.6-.4-6.9,0-1.4,.5-1.9,.5-1.9"/><path class="d" d="M-2.8-1c1.8-.5,5.5-.2,6-1.8s2.8-2.8,2.8-1.5-1.8,2.8-1.8,2.8C4.2-1.5,.2,2,2.2,2.5"/><path class="d" d="M26,1.7c1.8-.5,3.8-1,3.5-2.8s.2-4,.8-2.8,0,4,1.5,5"/><path class="d" d="M48.7,6.5c1.2-2.2,1.5-6.2-.2-7.5s-3-3-1.5-2.8,4,.8,4.8,3,2.2,8.8,.8,9.5"/><path class="d" d="M58,6.5c-1-1.5-1-4.5,.2-5.8s2.5-.8,2.8-2.2,1.5-3.2,2.5-3.2,2.5,2,3.2,2.8c1,1,2.5,1,2.5,1,1.8-.5,5.5-.2,6-1.8"/><path class="d" d="M-1-8.3c1.5-1.5,3.5-2.7,5.5-3.8,2-1,5-2,5.2-.8,.3,1.4-2.7,3.4-1,3.4s3.2-2,6.5-1.8c3.3,.2,9.2,4,7.2,4.8s-3.8,3.5-5.5,4.5-2.8,1-4,1S8.9,.2,10.9,1"/><path class="d" d="M22.2,.5c1-2,2.2-3.2,2.5-5s-.5-4.8,2-4.8c.6,0,1.3,0,2,.2"/><path class="d" d="M30.8-8.6c1.4,.5,2.7,1.2,3.7,2.3,2,2.3,.2,2.8,.5,4s6,4,7,3.2-1.2,0-2.2-1.8-4.2-6.3,1-6.5,6.2-1.1,6.4-2.1,5-.8,5,.5,1.5,6,2,4.8,2-3.5,5-5"/><path class="d" d="M61.2,1.2c1.2-1.2,1.5-3.8,2.8-3s2.8,2.2,3.5,2.8"/></g><path class="d" d="M-14,6.5c-1-1.5-1-4.5,.2-5.8S-11.3-.1-11-1.5s1.5-3.2,2.5-3.2,2.5,2,3.2,2.8C-4.3-.9-2.8-.9-2.8-.9c1.8-.5,5.5-.2,6-1.8"/><g><path class="d" d="M66.7,3.2c3.9,2.4,6,7,10.5,8.5-.2-1.1-.1-2.3,.6-2.8,1.2-.9,2.4-.6,3.9-.2,1,3.2,3.1,7.3,7,6.4,1.4-.3,1.3-2,2.1-2.8,.9-.8,2.2-1.7,3.3-1,1.2,.8,2.4,1.2,3.6,1.8,.7,.3,.2,1.3,1,1.6,1.9,.6,2.2-1.4,3.5-2-.1-1.9,0-3.7,.5-5.5,.7-2.3,3.4-1.6,5-.5-.3,.3,.6,1.8,.5,3.4,.5,3.7-1.7,6.9,2.1,8.4,3.7,1.4,7.9,.4,11.9,1,1.2,.2,2.4,.4,3.4,1,1.4,.8,2.6,1.9,4.1,2.3,.2-.8,1.4-.2,1.5-1,.2-2.2,1.7-3.7,2.8-5.4,.2-.3,.5-1.1,1.2-1.4,.9-.4,.7-2.1,1.1-3.3"/><path class="d" d="M69.4,9.6c1.5,.7,3.1,1.2,4.5,2.2,.1,.9,.8,1.4,1,2.2,0,.2,.4,.3,.4,.3,.7,1.6,2.3,2.4,3.8,1.7,.4-.2,.2-.9,.8-.7,0-.3,.1-.6,0-.7-1.3-.9-1.3-2.4-1.1-3.5,.2-.8,1.1-1.6,2.1-.8-.2,2.8,1.1,5.3,3.3,6.9,1.2,.9,2.7,.7,4.2,.6-.1-.6,.4-.1,.5-.2"/><path class="d" d="M69.7,13.2c1.8,.2,3.8,2.5,5.2,4,1.5,1.5,3,2.5,4.5,2.2s1-3.2,3.2-.2,3.8,2,5.2,1.8,5-2,6.2-.5-2,6,.2,6.2,3.2-3.2,5.2-4.5,3-2.8,4.2-.8,3.2,3.8,5.5,3,3-.8,5-.8"/><path class="d" d="M89.2,30.1c-1-.1-1.9-.1-2.8-.1-3.5,0-4-2.5-1.5-3s4.5-2.5,6.5-4-1.5-1-3.5,0-3,0-5.5-2-1.5,.5-3,1-3-.5-4.5-2-3.5-.5-7.5,.5"/><path class="d" d="M68.7,23.7c1.5-.8,3.2-2.2,5.2-1.2s3.2,2.5,4.5,2,2.5-2.2,4-1.2,3.2,.8,1.5,2.5-5.2,3-4,4,3.8,3.2,6.5,3.2,15,2.2,14.5-.2-1.8-8.2,0-7.2,3.2,2.8,4.8,2.8,2.8,.2,3.2,2.8,3,3.8,4,2.8,2.5-2.2,2.2-.5,.5,4.5,4,4.2c.5,0,1.1-.1,1.7-.1"/><path class="d" d="M69.2,2.7c1,1.2,2.8,3,4.5,4.8s2.7,1.2,3-.2,.8-2.5,2.2-2.2,5.5,3,6,5.2,1.8,3.8,3,2.8,2-4,4.2-4,7.5,4.8,7.8,3-.5-4,.2-6.5,2.5-2.5,5-1.5,4.5,2,4.8,3.5"/><path class="d" d="M68.2,68.5c2.2,.5,7,0,6-1.8s4-7,4.5-5.5-2,4.5,.8,4.8,5.8-3,7.5-3.2,5.5,1.5,3.2,3-2.8,4.5-5.5,4.2-7,.2-6,3"/><path class="d" d="M70.5,27.2c1.8-1,2-2,4-1.2l2.5,1c2-1,3.5-1.5,3.2-.5-.9,3.4-5.8,3-5,4.2,1.2,2,5.2,2.2,6.7,4.2s-.5,3.8,1.8,4.8,5.5-1,6.2-2.2,4.5-2.2,7.5-1.5,7.2,2,6.8-.5-1.2-5.8,.2-4.5,5.2,8.5,7.5,8.2,3.2,0,6.2,.2,9.5-.5,9.2,2-4.8,8.2-1,8.2c1.7,0,3.6-.6,5.2-1.5"/><path class="d" d="M69.2,71c1.8-.5,5.5-.2,6-1.8s2.7-2.8,2.7-1.5-1.7,2.8-1.7,2.8c0,0-4,3.5-2,4"/><path class="d" d="M69.5,36c1.2-.5,3.2-2.2,4-1.2s-8,3-.5,4.8,6.2,1,7.2,3.5-6.5,3.2-4.5,4.5c2,1.2,9.3,3,11.7,1.8,3-1.5,1.5-3.8,1.8-4.5s-1-4.8,2.5-6,5-2.5,8-.8,7,3.2,7,2-.2-2,2.5-.2,7.2,3.2,9.8,3,5,.5,4,2.2-3.8,2.8-5,4.8c-1.2,2,.8,3.2,3.2,3.5s12-.8,13.8-2.2,2.2-5.5,2.2-8-1-3.2,1.8-5.2"/><path class="d" d="M69.7,42c2.2-.5,4.2,0,5.2,.5s-2.5,3-4.8,3.8"/><path class="d" d="M70.2,51.2c3.8,.5,7.2,1.5,9.7,1s7.8,.5,9.8-3"/><path class="d" d="M70.5,55.2c3.5-.5,10.7-2,12.5-2,.6,0,1.8,0,3.2-.1"/><path class="d" d="M71,63.7c1.5-1.5,3.5-2.8,5.5-3.8s5-2,5.2-.8-2.8,3.2-1,3.2,3.2-2,6.5-1.8,9.2,4,7.2,4.8-3.8,3.5-5.5,4.5-2.8,1-4,1-4,1.2-2,2"/><path class="d" d="M70.5,57.7c1.8-.5,10.2-2.8,14.2-2.5s10.8,.5,11.8-.2,.2-2,.5-3.2,1-2.2,2.2-1c1.2,1.2,3.8,2,5,1.5s3.5-1.2,3.2,0-2.8,3.2-1.5,5.5,7,6.5,6.5,4.2-1.2-5.2,.5-4.5,5,2,8,1.5"/><path class="d" d="M70.7,60.5c3-1.5,9.5-4,16-3.8s6.2,1.8,4.8,1.8,.2,2.5,2.2,2.5,4.5-1.5,4.8-3.2,1-3,2.2-2.8,1,1,2.8,4,2.5,3,4,4.8,1.5,0,2.2-.2,6.2,.8,6.2-.5-3.8-3-2-3,9.8,1.5,11.5,.8"/></g><g><path class="d" d="M-5.3,3.2C-1.4,5.6,.7,10.2,5.2,11.7c-.2-1.1-.1-2.3,.6-2.8,1.2-.9,2.4-.6,3.9-.2,1,3.2,3.1,7.3,7,6.4,1.4-.3,1.3-2,2.1-2.8,.9-.8,2.2-1.7,3.3-1,1.2,.8,2.4,1.2,3.6,1.8,.7,.3,.2,1.3,1,1.6,1.9,.6,2.2-1.4,3.5-2-.1-1.9,0-3.7,.5-5.5,.7-2.3,3.4-1.6,5-.5-.3,.3,.6,1.8,.5,3.4,.5,3.7-1.7,6.9,2.1,8.4,3.7,1.4,7.9,.4,11.9,1,1.2,.2,2.4,.4,3.4,1,1.4,.8,2.6,1.9,4.1,2.3,.2-.8,1.4-.2,1.5-1,.2-2.2,1.7-3.7,2.8-5.4,.2-.3,.5-1.1,1.2-1.4,.9-.4,.7-2.1,1.1-3.3"/><path class="d" d="M77.2,11.7c-4.5-1.5-6.6-6.1-10.5-8.5-1.5-1-2.6-1.1-3.9-.8-1.2,.3-.4,2.1-.5,3.3-.2,1.5,1.6,.9,2.2,1.9s.8,1.5,.6,2.7"/><path class="d" d="M-2.6,9.6c1.5,.7,3.1,1.2,4.5,2.2,.1,.9,.8,1.4,1,2.2,0,.2,.4,.3,.4,.3,.7,1.6,2.3,2.4,3.8,1.7,.4-.2,.2-.9,.8-.7,0-.3,.1-.6,0-.7-1.3-.9-1.3-2.4-1.1-3.5,.2-.8,1.1-1.6,2.1-.8-.2,2.8,1.1,5.3,3.3,6.9,1.2,.9,2.7,.7,4.2,.6-.1-.6,.4-.1,.5-.2"/><path class="d" d="M69.4,9.6c1.5,.7,3.1,1.2,4.5,2.2"/><path class="d" d="M68.4,8.1c-.8-.5-1.1-1.4-1.6-2.2-.1-.2-.5-.2-.4-.6-.5,.1-1-.4-1.5-.2-.3,.1-.4,.5-.2,.7,.4,.3,.3,.9,.5,.9,.7,.2,.3,1.1,1,1.1,.4,1.5,.5,3,.1,4.5-.5,1.9-1.6,3.5-2.4,5.3"/><path class="d" d="M63,19c-1.8,2.2-3,3.5-3.2,4.8s-.5,2.2-1.8,2.2-2.2-1.5-4.2-2.5-9.2-2.2-11.2-2-6,1-7,.2-1.9-4.2-1.9-6.2,.2-4.8,0-5.8-1.8-2.8-2,.5-.5,4.8-2.2,6.5-4.8,2.7-5,1.5,.8-2.2,.2-2.8-2.2-1.2-3.2-1-1.5,1-2.2,1.5"/><path class="d" d="M-2.3,13.2c1.8,.2,3.8,2.5,5.2,4,1.5,1.5,3,2.5,4.5,2.2s1-3.2,3.2-.2c2.2,3,3.8,2,5.2,1.8s5-2,6.2-.5-2,6,.2,6.2,3.2-3.2,5.2-4.5,3-2.8,4.2-.8,3.2,3.8,5.5,3,3-.8,5-.8"/><path class="d" d="M45.7,24c1.5,.2,6.2,1,7.5,2.2s-1.8,5-.2,5.5,5.5-.2,7-1.5,2.8-5,3.2-7.2,3.8-4.7,4.2-6.5,0-4.5,.5-5,1,1.5,1.8,1.8c1.7,.6,3.8,2.5,5.2,4"/><path class="d" d="M75,20c-1.5-1.5-3.5-.5-7.5,.5,0,0-2.2,1-2.5,6.5s-3.8,6.8-6.2,7.5-12.8,2-13.5,.5,3.8-3.5,4.5-5-.2-3.8-2-3.5-1.8,2.8-3.2,3.5-5.5,1-5.8-1.2-4.3-2.3-4.3-2.3c-2.5,.5-3-4-5-4s-2.5,4.5-4.5,6.5c-1,1-2.8,1.2-4.7,1.2"/><path class="d" d="M17.2,30.1c-1-.1-1.9-.1-2.8-.1-3.5,0-4-2.5-1.5-3s4.5-2.5,6.5-4-1.5-1-3.5,0-3,0-5.5-2-1.5,.5-3,1-3-.5-4.5-2c-1.4-1.5-3.4-.5-7.4,.5"/><path class="d" d="M-3.3,23.7c1.5-.8,3.2-2.2,5.2-1.2s3.2,2.5,4.5,2,2.5-2.2,4-1.2,3.2,.8,1.5,2.5-5.2,3-4,4,3.8,3.2,6.5,3.2,15,2.2,14.5-.2-1.8-8.2,0-7.2,3.2,2.8,4.8,2.8,2.8,.2,3.2,2.8,3,3.8,4,2.8,2.5-2.2,2.2-.5,.5,4.5,4,4.2c.5,0,1.1-.1,1.7-.1"/><path class="d" d="M51,37.2c4.2-.4,9.7-1.2,11.8-2.4,2.8-1.8,4.5-6,4.8-8.5"/><path class="d" d="M68.7,23.7c1.5-.8,3.2-2.2,5.2-1.2"/><path class="d" d="M12.7-2c-2.8-.2-7,.2-6,3,1,2.8,7.5,4.5,8.2,6s2.8,1.8,3.8-.2S22.5,1.6,23.7,1s4.2-3,3.2-4.8"/><path class="d" d="M33.7-4c-.5,1.2-1.8,3.2,0,4.5s10.2,3.8,12,2.8,1.8-2,.5-3.2-6.5-1.2-5.8-2.5"/><path class="d" d="M-2.8,2.7C-1.8,3.9,0,5.7,1.7,7.5s2.8,1.2,3-.2,.8-2.5,2.2-2.2,5.5,3,6,5.2,1.8,3.8,3,2.8,2-4,4.2-4,7.5,4.8,7.8,3-.5-4,.2-6.5,2.5-2.5,5-1.5,4.5,2,4.8,3.5"/><path class="d" d="M69.2,2.7c1,1.2,2.8,3,4.5,4.8"/><path class="d" d="M4.2-1.5S.2,2,2.2,2.5s4,0,6,1.2,5.2,3.2,6,4.8,1.8,2.5,2.5,1.5,2-2,3.8-2.5,3,1,3.8-.8,0-4.5,1.8-5,3.8-1,3.5-2.8"/><path class="d" d="M30.2-3.8c.5,1.2,0,4,1.5,5s6.2,2.8,7,4c.7,1.2,3.9,1.9,6,2"/><path class="d" d="M46.5,7.2c.2-.2,1.9-.2,2.2-.8,1.2-2.2,1.5-6.2-.2-7.5"/><path class="d" d="M51.7-.8c.8,2.2,2.2,8.8,.8,9.5s-4.8,1.5-2.8,3.5,5.8,3.8,6.8,3.2,4.5-3.5,3.8-5.2-1.2-2.2-2.2-3.8-1-4.5,.2-5.8,2.5-.8,2.8-2.2"/><path class="d" d="M38.2,9.2c0,1.2-.5,2.5,.2,4.5s2.8,3,3,1.5-1.5-4.8,0-5,2.5-.5,3.2,1-1.2,3.2,0,4.2,6.2,2.8,7.8,2.2,2.8,.2,3.8,.5"/><path class="d" d="M58,18.2c1,.2,2.2-1.5,2.5-3s2.2-2.8,2.5-3.8-2.2-5-2.8-6.2-.2-2.8,1-4,1.5-3.8,2.8-3,2.8,2.2,3.5,2.8"/><path class="d" d="M54-1.3c.8,.5,.8,1,.5,3-.3,2,.8,6.8,0,7.8s-1.5,3,0,2.5c.8-.3,2.5,.1,2.8-1.4,.2-1.2-1-4.2-1-4.9,0-1.5-.4-5.6-.4-6.9"/><path class="d" d="M-3.8,68.5c2.2,.5,7,0,6-1.8s4-7,4.5-5.5-2,4.5,.8,4.8,5.8-3,7.5-3.2,5.5,1.5,3.2,3-2.8,4.5-5.5,4.2-7,.2-6,3"/><path class="d" d="M23.7,73c1.2-.5,4.2-3,3.2-4.8s-.5-3.2,1-3.5,6.2,2,5.8,3.2-1.8,3.2,0,4.5"/><path class="d" d="M45.7,75.2c1.8-1,1.8-2,.5-3.2s-6.5-1.2-5.8-2.5,5-4,7.8-4,3,3.5,4.8,4"/><path class="d" d="M54,70.7c.8,.5,.8,1,.5,3"/><path class="d" d="M56.2,77.7c0-1.5-.4-5.6-.4-6.9,0-1.4,.5-1.9,.5-1.9"/><path class="d" d="M-1.5,27.2c1.8-1,2-2,4-1.2l2.5,1c2-1,3.5-1.5,3.2-.5-.9,3.4-5.8,3-5,4.2,1.2,2,5.2,2.2,6.8,4.2s-.5,3.8,1.8,4.8c2.3,1,5.5-1,6.2-2.2s4.5-2.2,7.5-1.5,7.2,2,6.8-.5-1.2-5.8,.2-4.5,5.2,8.5,7.5,8.2,3.2,0,6.2,.2,9.5-.5,9.2,2-4.8,8.2-1,8.2c1.7,0,3.6-.6,5.2-1.5"/><path class="d" d="M62.4,45.9c.6-.8,1-1.6,1.1-2.5,.5-3.5,.2-5.8,2.2-7"/><path class="d" d="M70.5,27.2c1.8-1,2-2,4-1.2"/><path class="d" d="M67,35.7c1-1,2-3,2-4s-.5-2.2,.2-3.2"/><path class="d" d="M-2.8,71c1.8-.5,5.5-.2,6-1.8s2.8-2.8,2.8-1.5-1.8,2.8-1.8,2.8c0,0-4,3.5-2,4"/><path class="d" d="M26,73.7c1.8-.5,3.8-1,3.5-2.8s.2-4,.8-2.8,0,4,1.5,5"/><path class="d" d="M48.7,78.5c1.2-2.2,1.5-6.2-.2-7.5s-3-3-1.5-2.8,4,.8,4.8,3,2.2,8.8,.8,9.5"/><path class="d" d="M58,78.5c-1-1.5-1-4.5,.2-5.8s2.5-.8,2.8-2.2,1.5-3.2,2.5-3.2,2.5,2,3.2,2.8c1,1,2.5,1,2.5,1,1.8-.5,5.5-.2,6-1.8"/><path class="d" d="M-2.5,36c1.2-.5,3.2-2.2,4-1.2s-8,3-.5,4.8,6.2,1,7.2,3.5-6.5,3.2-4.5,4.5,9.3,3,11.8,1.8c3-1.5,1.5-3.8,1.8-4.5s-1-4.8,2.5-6,5-2.5,8-.8,7,3.2,7,2-.2-2,2.5-.2,7.2,3.2,9.8,3,5,.5,4,2.2-3.8,2.8-5,4.8c-1.2,2,.8,3.2,3.2,3.5s12-.8,13.8-2.2,2.2-5.5,2.2-8-1-3.2,1.8-5.2"/><path class="d" d="M69.5,36c1.2-.5,3.2-2.2,4-1.2s-8,3-.5,4.8"/><path class="d" d="M-2.3,42c2.2-.5,4.2,0,5.2,.5s-2.5,3-4.8,3.8"/><path class="d" d="M-1.8,51.2c3.8,.5,7.2,1.5,9.8,1s7.8,.5,9.8-3"/><path class="d" d="M69.7,42c2.2-.5,4.2,0,5.2,.5s-2.5,3-4.8,3.8-3.8,4.5,0,5,7.2,1.5,9.7,1"/><path class="d" d="M68.5,42.2c-1.2,.8-2,2.2-2,4s-2,7.5-5,7.8-20.2,2-20.8-.2,3.2-4.5,4-5.5,.5-3.2-.8-3.5-4-1-3.8,.5-1,3.2-2.5,1.5c-.8-.9-2.7-1.5-3.8-2.2"/><path class="d" d="M32.2,43.2c-1.8-1.8-4.8-3-6.8-3s-6.2,.5-6,2.8,.2,3.2-.2,4.2"/><path class="d" d="M-1.5,55.2c3.5-.5,10.8-2,12.5-2,.6,0,1.8,0,3.2-.1"/><path class="d" d="M18.2,52.9c2-.2,3.7-.7,4.3-1.4,1.2-1.8-.2-4.8-.8-6.2s-1-2.8,.5-2.8,6.8-.2,6,1.2-3.2,2.2-2.5,3.8,7,2.5,8.2,2.2,3.8-1.2,4.8-.2-.8,1.5-.2,3.5"/><path class="d" d="M70.5,55.2c3.5-.5,10.7-2,12.5-2"/><path class="d" d="M39.5,54.5c2,1,3.2,2.2,7.8,2s17.5-1.2,18-2.2,2-1.8,2.5-.5,1.2,1.5,1.2,1.5"/><path class="d" d="M-1,63.7c1.5-1.5,3.5-2.8,5.5-3.8s5-2,5.2-.8-2.8,3.2-1,3.2,3.2-2,6.5-1.8c3.3,.2,9.2,4,7.2,4.8s-3.8,3.5-5.5,4.5-2.8,1-4,1-4,1.2-2,2"/><path class="d" d="M22.2,72.5c1-2,2.2-3.2,2.5-5s-.5-4.8,2-4.8c.6,0,1.3,0,2,.2"/><path class="d" d="M30.8,63.4c1.4,.5,2.7,1.2,3.7,2.3,2,2.2,.2,2.8,.5,4s6,4,7,3.2-1.2,0-2.2-1.8-4.2-6.2,1-6.5,6.2-1.2,6.5-2.2,5-.8,5,.5,1.5,6,2,4.8,2-3.5,5-5"/><path class="d" d="M71,63.7c1.5-1.5,3.5-2.8,5.5-3.8"/><path class="d" d="M68.2,68.5c2.2,.5,7,0,6-1.8"/><path class="d" d="M58,68c.8-1,3.2-2.2,4-3.2s2.2-2.5,3-.8-.2,3.5,1.5,4"/><path class="d" d="M70.2,64.5c-1.5,1.5-3.2,2.2-3.2,1.2s2.8-1.8,1.8-3.2-5-2.5-6.5-1.8-1.8,1.2-1.8,1.2"/><path class="d" d="M-1.5,57.7c1.8-.5,10.2-2.8,14.2-2.5s10.8,.5,11.8-.2,.2-2,.5-3.2,1-2.2,2.2-1c1.2,1.2,3.8,2,5,1.5s3.5-1.2,3.2,0-2.8,3.2-1.5,5.5,7,6.5,6.5,4.2-1.2-5.2,.5-4.5,5,2,8,1.5"/><path class="d" d="M70.5,57.7c1.8-.5,10.2-2.8,14.2-2.5"/><path class="d" d="M68.7,58c-1.5,.5-3.6,.2-3.2-1,.8-2.5-3.2,.2-6,.8s-6,.8-7,.8"/><path class="d" d="M-1.3,60.5c3-1.5,9.5-4,16-3.8s6.2,1.8,4.8,1.8,.2,2.5,2.2,2.5,4.5-1.5,4.8-3.2,1-3,2.2-2.8,1,1,2.8,4,2.5,3,4,4.8,1.5,0,2.2-.2,6.2,.8,6.2-.5-3.8-3-2-3,9.8,1.5,11.5,.8"/><path class="d" d="M70.7,60.5c3-1.5,9.5-4,16-3.8"/><path class="d" d="M70.2,60.7c-2,.9-4.2-2.2-7-1.8s-4.8,1-6.2,1.2-2.2,.2-2.2,.2"/><path class="d" d="M13-1c-1.2,0-4,1.2-2,2,2.8,2,9.5,2.2,11.2-.5,1-2,2.2-3.2,2.5-5"/><path class="d" d="M35-2.3c.2,1.2,6,4,7,3.2s-1.2,0-2.2-1.8"/><path class="d" d="M61.2,73.2c1.2-1.2,1.5-3.8,2.8-3s2.8,2.2,3.5,2.8"/></g><g><path class="d" d="M5.2,11.7C.7,10.2-1.4,5.6-5.3,3.2c-1.5-1-2.6-1.1-3.9-.8-1.2,.3-.4,2.1-.5,3.3-.2,1.5,1.6,.9,2.2,1.9,.6,1,.8,1.5,.6,2.7"/><path class="d" d="M-2.6,9.6c1.5,.7,3.1,1.2,4.5,2.2"/><path class="d" d="M-26.3,24c1.5,.2,6.2,1,7.5,2.2s-1.8,5-.2,5.5,5.5-.2,7-1.5,2.8-5,3.2-7.2,3.8-4.7,4.2-6.5,0-4.5,.5-5,1,1.5,1.8,1.8c1.7,.6,3.8,2.5,5.2,4"/><path class="d" d="M3,20c-1.5-1.5-3.5-.5-7.5,.5,0,0-2.2,1-2.5,6.5s-3.8,6.8-6.2,7.5-12.8,2-13.5,.5,3.8-3.5,4.5-5-.2-3.8-2-3.5-1.8,2.8-3.2,3.5-5.5,1-5.8-1.2-4.3-2.3-4.3-2.3c-2.5,.5-3-4-5-4s-2.5,4.5-4.5,6.5c-1,1-2.8,1.2-4.7,1.2"/><path class="d" d="M-3.3,23.7c1.5-.8,3.2-2.2,5.2-1.2"/><path class="d" d="M-2.8,2.7C-1.8,3.9,0,5.7,1.7,7.5"/><path class="d" d="M-1.5,27.2c1.8-1,2-2,4-1.2"/><path class="d" d="M-14,78.5c-1-1.5-1-4.5,.2-5.8s2.5-.8,2.8-2.2,1.5-3.2,2.5-3.2,2.5,2,3.2,2.8c1,1,2.5,1,2.5,1,1.8-.5,5.5-.2,6-1.8"/><path class="d" d="M-2.5,36c1.2-.5,3.2-2.2,4-1.2s-8,3-.5,4.8"/><path class="d" d="M-2.3,42c2.2-.5,4.2,0,5.2,.5s-2.5,3-4.8,3.8-3.8,4.5,0,5,7.2,1.5,9.8,1"/><path class="d" d="M-1.5,55.2c3.5-.5,10.8-2,12.5-2"/><path class="d" d="M-1,63.7c1.5-1.5,3.5-2.8,5.5-3.8"/><path class="d" d="M-3.8,68.5c2.2,.5,7,0,6-1.8"/><path class="d" d="M-1.5,57.7c1.8-.5,10.2-2.8,14.2-2.5"/><path class="d" d="M-1.3,60.5c3-1.5,9.5-4,16-3.8"/></g><g><path class="d" d="M12.7,70c-2.8-.2-7,.2-6,3s7.5,4.5,8.2,6,2.8,1.8,3.8-.2,3.8-5.2,5-5.8,4.2-3,3.2-4.8"/><path class="d" d="M33.7,68c-.5,1.2-1.8,3.2,0,4.5s10.2,3.8,12,2.8,1.8-2,.5-3.2-6.5-1.2-5.8-2.5"/><path class="d" d="M4.2,70.5s-4,3.5-2,4,4,0,6,1.2,5.2,3.2,6,4.8,1.8,2.5,2.5,1.5,2-2,3.8-2.5,3,1,3.8-.8,0-4.5,1.8-5,3.8-1,3.5-2.8"/><path class="d" d="M30.2,68.2c.5,1.2,0,4,1.5,5s6.2,2.8,7,4c.7,1.2,3.9,1.9,6,2"/><path class="d" d="M46.5,79.2c.2-.2,1.9-.2,2.2-.8,1.2-2.2,1.5-6.2-.2-7.5"/><path class="d" d="M51.7,71.2c.8,2.2,2.2,8.8,.8,9.5s-4.8,1.5-2.8,3.5,5.8,3.8,6.8,3.2,4.5-3.5,3.8-5.2-1.2-2.2-2.2-3.8-1-4.5,.2-5.8,2.5-.8,2.8-2.2"/><path class="d" d="M58,90.2c1,.2,2.2-1.5,2.5-3s2.2-2.8,2.5-3.8-2.2-5-2.8-6.2-.2-2.8,1-4,1.5-3.8,2.8-3,2.8,2.2,3.5,2.8"/><path class="d" d="M54,70.7c.8,.5,.8,1,.5,3s.8,6.8,0,7.8-1.5,3,0,2.5c.8-.3,2.5,.1,2.8-1.4,.2-1.2-1-4.2-1-4.9,0-1.5-.4-5.6-.4-6.9"/><path class="d" d="M13,71c-1.2,0-4,1.2-2,2,2.8,2,9.5,2.2,11.2-.5,1-2,2.2-3.2,2.5-5"/><path class="d" d="M35,69.7c.2,1.2,6,4,7,3.2s-1.2,0-2.2-1.8"/></g></g></g></pattern></defs><path class="e" d="M0,559.4H0c8.8-8.3,32-37.6,46.91-40.5s30.2,26.9,44.7,40.5c26.4,24.6,50.81,29,73.31-15.6,13-25.6,117.31,50.2,128.51,27.2,16.2-33.2,49.21-42.6,63.61-14.8,9.4,18.2,59.31,4.8,89.31-3,27.7-.7,21,21.1,51.01,20.3,30-.7,63.11-108.9,123.01-44.6,28.3,30.3,92.01,60.9,122.01,54.2,30-6.8,73.31-52.7,95.01-39.4,22.5,13.8,24.9,27.7,40.4,33.3,12.5,4.5,16.4-13.7,22.2-5.3h0v28.3H0v-40.6Z"/><g><path class="g" d="M800.52,68.18c.1,.5,.1,1,.1,1.4,0,2.7-1.1,5.5-3.4,8.6-1.8,2.5-4.1,4.7-6.7,6.6-2.4,1.8-4.1,2.6-4.9,2.4-1-.1-2.7-.8-5.1-2.1-2.4-1.3-3.7-2.2-3.9-2.7-.1-.1-.1-.3-.1-.4,0-.2,.1-.4,.2-.7,.1-.3,.2-.5,.2-.7v-31.1c0-.5,.7-.8,2.1-.8,.6,0,1.2,.1,1.7,.2,1.5-1,3.4-1.8,5.7-2.6,2.3-.8,4.2-1.1,5.9-1.1,1,0,1.7,.1,2.2,.4s1,.7,1.5,1.4c.6,.9,1,1.5,1.2,1.7,.1,.1,.6,.5,1.6,1.3,.6,.5,.9,1,1.1,1.5,.1,.4,.2,.8,.2,1.2,0,2.5-1.7,5.3-5,8.3,3.2,2.7,5.1,5.1,5.4,7.2Zm-8.4-15.6c-.1-.1-.2-.2-.5-.2-.7,0-1.9,.4-3.5,1.2-1.6,.8-2.6,1.5-3.2,2.2v5c2-1.6,3.8-3.3,5.3-5,1.6-1.8,2.2-2.8,1.9-3.2Zm1.8,14.2c-.8,0-2.2,.4-4.2,1.2-2.1,.9-3.7,1.7-4.7,2.5v8.9c2.1-.6,4.1-2.3,6.1-5.3,2.1-2.9,3-5.3,2.8-7.3Z"/><path class="g" d="M823.02,49.08c3.1,1.6,4.6,4.4,4.6,8.4,0,2.9-1.1,6.5-3.4,10.9-2.5,4.9-5.1,7.4-7.7,7.4-.5,0-1.1-.2-1.7-.7-.6-.5-1.2-1-1.8-1.5v8.2c0,.4,.1,.9,.2,1.4,.2,.8,.4,1.3,.4,1.6,.1,.3-.1,.8-.4,1.6-.3,.8-.7,1.2-1.3,1.2-.6,.1-1.8-.3-3.7-1.2-2-.9-3.3-1.7-3.7-2.4-.3-.4-.3-1.1,0-2,.2-.7,.3-1.2,.3-1.6v-29.7c0-.2-.1-.5-.3-1.1-.2-.5-.3-.9-.3-1.1,.2-1.5,.8-2.3,1.7-2.3,.2,0,.8,.2,1.9,.6,1.1,.4,2,.6,2.7,.6,1,0,2.2-.2,3.7-.8,1.5-.5,2.6-.8,3.2-.8,.4,0,.8,0,1.2,.1,.7,.2,1.5,.7,2.3,1.4,1,1,1.7,1.6,2.1,1.8Zm-4,3.7c-.7,0-1.8,.4-3.1,1.2-1.3,.8-2.3,1.7-3,2.6v11.6c1.7-.5,3.4-2.5,4.9-5.9,1.4-3.1,2.1-5.7,2.1-7.8,0-1.1-.3-1.7-.9-1.7Z"/></g><path class="i" d="M900.1,0V600h-29.27l-4.24-10c-4.24-10-12.67-30-12.46-50,.21-20,9.07-40,13.58-60s4.67-40,.53-60c-4.14-20-12.62-40-12.14-60,.53-20,9.97-40,15.22-60,5.2-20,6.26-40,5.09-60-1.17-20-4.45-40-6.89-60s-3.98-40-5.51-60c-1.54-20-2.97-40-5.99-60-3.02-20-7.58-40-9.92-50l-2.28-10h54.3Z"/><path class="h" d="M1.13,600V0H36.63l12.5,4.53c10.6,3.87-26.2,17.6-20.5,25.87,7,10.33,30.1,12.53,47.5,27.53,16.8,14.47-27.1,14.13-35.6,34.13s36,80.13,50,94.4c16,16.4-75.4,76.47-76.3,96.47-1,20,46.6,1.07,45.8,19.53-9.8,20-36.9,42.87-23.3,59.53,15.6,19.13,43.7,34.13,28.8,57.47-11.5,18.07-16.8,40.47-6.8,58.87,11,20.2-12.1,40.6-6.4,60.6,3.7,13.13,25.4,26.87,21.8,36.73-3.6,9.93-11.3,18.53-21.8,24.33H1.13Z"/><path class="j" d="M900.63,0V600h-22.9c-6.8-3.87,7.9-6.47,4.3-14.8-4.5-10.33-15.8-11.93-27-26.93-10.8-14.47,26.5-43.33,32-63.33,5.5-20-19.3-62.53-43.9-81.33-52.2-39.93,35.6-62,36.2-82,.6-20-17.1-15.53-16.5-34,6.3-20,17.2-53.33,2.4-59.53-22.6-9.53-15-31.6,12-42.4,18.7-7.47-42.9-77-22.1-85.67,36.2-15.07,32.7-31.27,12.7-48.87-11-9.73-35.2-19.93-32.8-29.8,2.3-9.93,26.1-25.47,32.8-31.27h32.8V0Z"/><path class="i" d="M900,600H1.13v-39.77l14.98-5.76c14.98-5.76,44.94-17.22,74.91-16.93,29.96,.29,59.92,12.32,89.89,18.44s59.92,6.34,89.89,.72c29.96-5.62,59.92-17.15,89.89-16.5,29.96,.72,59.92,13.54,89.89,20.68,29.96,7.06,59.92,8.5,89.89,6.92s59.92-6.05,89.89-9.36c29.96-3.31,59.92-5.4,89.89-7.49,29.96-2.09,59.92-4.03,89.89-8.14,29.96-4.11,59.92-10.3,74.91-13.47l14.98-3.1v73.77Z"/><path class="f" d="M1.13,600V0H24.03c6.8,3.87-7.9,6.47-4.3,14.8,4.5,10.33,15.8,11.93,27,26.93,10.8,14.47-26.5,43.33-32,63.33-5.5,20,19.3,62.53,43.9,81.33,52.2,39.93-35.6,62-36.2,82-.6,20,17.1,15.53,16.5,34-6.3,20-17.2,53.33-2.4,59.53,22.6,9.53,15,31.6-12,42.4-18.7,7.47,42.9,77,22.1,85.67-36.2,15.07-32.7,31.27-12.7,48.87,11,9.73,35.2,19.93,32.8,29.8-2.3,9.93-26.1,25.47-32.8,31.27H1.13v.07Z"/></svg>